<svg xmlns="http://www.w3.org/2000/svg" xmlns:xlink="http://www.w3.org/1999/xlink" viewBox="0 0 43.89 44.87"><defs><style>.cls-1{fill:#fff;}.cls-2{mask:url(#mask);}.cls-3{mask:url(#mask-2);}.cls-4{fill:url(#Gradiente_sem_nome_5);}.cls-5{mask:url(#mask-3);}.cls-6{mask:url(#mask-4);}.cls-7{fill:url(#Gradiente_sem_nome_2);}.cls-8{mask:url(#mask-5);}.cls-9{mask:url(#mask-6);}.cls-10{fill:url(#Gradiente_sem_nome_3);}.cls-11{mask:url(#mask-7);}.cls-12{fill:url(#Gradiente_sem_nome_5-2);}.cls-13{mask:url(#mask-8);}.cls-14{fill:url(#Gradiente_sem_nome_5-3);}</style><mask id="mask" x="6.23" y="1.85" width="26.91" height="36.36" maskUnits="userSpaceOnUse"><g id="mask0_19_531" data-name="mask0 19 531"><path class="cls-1" d="M33.14,1.85H6.23V38.21H33.14Z"/></g></mask><mask id="mask-2" x="3.72" y="0" width="31.92" height="40.06" maskUnits="userSpaceOnUse"><g id="mask1_19_531" data-name="mask1 19 531"><path class="cls-1" d="M22.35,1.85A18.51,18.51,0,0,0,6.23,14.3c1,10.6,5.94,15.48,10.68,18.74s16.23,5.17,16.23,5.17c-1.8-.33-8.62-2.09-13-6.88a17.84,17.84,0,0,1-3.35-5.19h0a19.82,19.82,0,0,1-.94-2.89,38.42,38.42,0,0,1-1.3-9C14.35,7.64,18.09,3,22.35,1.85Z"/></g></mask><linearGradient id="Gradiente_sem_nome_5" x1="19.17" y1="121.73" x2="20.38" y2="139.28" gradientTransform="matrix(1, 0, 0, -1, 0, 149.22)" gradientUnits="userSpaceOnUse"><stop offset="0" stop-color="#6f0413"/><stop offset="1" stop-color="#c70725"/></linearGradient><mask id="mask-3" x="5.23" y="14.3" width="28.21" height="24.52" maskUnits="userSpaceOnUse"><g id="mask2_19_531" data-name="mask2 19 531"><path class="cls-1" d="M33.44,14.3H5.23V38.82H33.44Z"/></g></mask><mask id="mask-4" x="0" y="8.24" width="38.85" height="36.62" maskUnits="userSpaceOnUse"><g id="mask3_19_531" data-name="mask3 19 531"><path class="cls-1" d="M6.23,14.3a18.52,18.52,0,0,0,17.5,24.52h9.41a.31.31,0,0,0,0-.61S21.64,36.3,16.91,33,7.28,24.9,6.23,14.3Z"/></g></mask><linearGradient id="Gradiente_sem_nome_2" x1="16.71" y1="110.52" x2="18.57" y2="118.82" gradientTransform="matrix(1, 0, 0, -1, 0, 149.22)" gradientUnits="userSpaceOnUse"><stop offset="0" stop-color="#850419"/><stop offset="1" stop-color="#c70725"/></linearGradient><mask id="mask-5" x="14.51" y="1.8" width="27.57" height="21.45" maskUnits="userSpaceOnUse"><g id="mask4_19_531" data-name="mask4 19 531"><path class="cls-1" d="M42.08,1.8H14.51V23.25H42.08Z"/></g></mask><mask id="mask-6" x="14.35" y="1.8" width="27.73" height="21.45" maskUnits="userSpaceOnUse"><g id="mask5_19_531" data-name="mask5 19 531"><path class="cls-1" d="M31.11,9.49c8.93,1.24,10.91,8.16,11,8.35a18.52,18.52,0,0,0-18.35-16c-.46,0-.92,0-1.38.05-4.26,1.11-8,5.79-7.84,12.41a38.42,38.42,0,0,0,1.3,9A16.48,16.48,0,0,1,15.65,16a8.06,8.06,0,0,1,3.59-5.49,6.62,6.62,0,0,1,2.5-1.07A34.58,34.58,0,0,1,31.11,9.49Z"/></g></mask><linearGradient id="Gradiente_sem_nome_3" x1="14.51" y1="136.69" x2="42.08" y2="136.69" gradientTransform="matrix(1, 0, 0, -1, 0, 149.22)" gradientUnits="userSpaceOnUse"><stop offset="0" stop-color="#720414"/><stop offset="1" stop-color="#c50725"/></linearGradient><mask id="mask-7" x="21.74" y="9.15" width="20.5" height="23.42" maskUnits="userSpaceOnUse"><g id="mask6_19_531" data-name="mask6 19 531"><path class="cls-1" d="M42.24,9.15H21.74V32.57h20.5Z"/></g></mask><linearGradient id="Gradiente_sem_nome_5-2" x1="21.74" y1="128.36" x2="42.24" y2="128.36" xlink:href="#Gradiente_sem_nome_5"/><mask id="mask-8" x="20.09" y="7.4" width="23.8" height="27.5" maskUnits="userSpaceOnUse"><g id="mask7_19_531" data-name="mask7 19 531"><path class="cls-1" d="M42.08,17.84c-.06-.19-2-7.11-11-8.35a34.58,34.58,0,0,0-9.37-.06,3,3,0,0,1,1.48.1c1,.34,2,1.35,3.07,3.13A12,12,0,0,1,27.68,16a2,2,0,0,1,.05.24,6,6,0,0,1,.12,1.08,3.62,3.62,0,0,1-.14,1,4,4,0,0,1-1.92,1.94c-1.39.84-2.25,1.84-2,3.67,0,.13.05.28.08.42a11.05,11.05,0,0,0,2,4A13,13,0,0,0,30,31.84c3.13,1.69,8.34.42,10.41-3.47a17,17,0,0,0,1.85-8.06A20.09,20.09,0,0,0,42.08,17.84Z"/></g></mask><linearGradient id="Gradiente_sem_nome_5-3" x1="31.18" y1="140.14" x2="32.46" y2="121.1" xlink:href="#Gradiente_sem_nome_5"/></defs><g id="Camada_2" data-name="Camada 2"><g id="Camada_1-2" data-name="Camada 1"><g class="cls-2"><g class="cls-3"><path class="cls-4" d="M3.72,38,6.35,0,35.64,2,33,40.06Z"/></g></g><g class="cls-5"><g class="cls-6"><path class="cls-7" d="M0,37.65,6.58,8.24l32.27,7.22L32.27,44.87Z"/></g></g><g class="cls-8"><g class="cls-9"><path class="cls-10" d="M42.08,1.8H14.35V23.25H42.08Z"/></g></g><g class="cls-11"><path class="cls-12" d="M42.08,17.84c-.06-.19-2-7.11-11-8.35a34.58,34.58,0,0,0-9.37-.06,3,3,0,0,1,1.48.1c1,.34,2,1.35,3.07,3.13A12,12,0,0,1,27.68,16a2,2,0,0,1,.05.24,6,6,0,0,1,.12,1.08,3.62,3.62,0,0,1-.14,1,4,4,0,0,1-1.92,1.94c-1.39.84-2.25,1.84-2,3.67,0,.13.05.28.08.42a11.05,11.05,0,0,0,2,4A13,13,0,0,0,30,31.84c3.13,1.69,8.34.42,10.41-3.47a17,17,0,0,0,1.85-8.06A20.09,20.09,0,0,0,42.08,17.84Z"/><g class="cls-13"><path class="cls-14" d="M42.15,7.4l1.74,26-22,1.48-1.75-26Z"/></g></g></g></g></svg>