<svg width="160" height="38" viewBox="0 0 160 38" fill="none" xmlns="http://www.w3.org/2000/svg">
<g clip-path="url(#clip0_19_531)">
<path d="M47.0825 12.0331H52.0764V15.9348H47.0825V24.2074C47.0825 25.2224 47.3226 26.0414 47.8039 26.6663C48.2852 27.29 48.9686 27.6023 49.8526 27.6023C50.5284 27.6023 51.2182 27.4333 51.9206 27.0948L53.4033 30.7625C53.0128 31.0747 52.4338 31.3479 51.6669 31.5823C50.8995 31.8159 50.2036 31.9333 49.5795 31.9333C47.2121 31.9333 45.3655 31.3353 44.0386 30.1383C42.7121 28.9425 42.0492 27.265 42.0492 25.105V15.9348V12.0331V8.10103L47.0825 6.13518V12.0331Z" fill="#004A7B"/>
<path d="M64.4846 12.0335C66.3828 12.0335 67.9828 12.4761 69.2835 13.36C70.5842 14.2448 71.5464 15.4349 72.171 16.9297C72.7955 18.4268 73.1077 20.0975 73.1077 21.9437V23.505H60.3485C60.6079 24.8315 61.1736 25.8465 62.0458 26.5485C62.9176 27.2509 64.2502 27.6019 66.0447 27.6019C67.0852 27.6019 68.0216 27.4595 68.8546 27.1731C69.6866 26.8866 70.5842 26.4703 71.5464 25.9244L73.0295 29.5917C72.0672 30.3465 71.026 30.9258 69.9077 31.3281C68.7893 31.7308 67.4624 31.9325 65.9281 31.9325C62.3383 31.9325 59.613 31.055 57.7536 29.2988C55.8937 27.5434 54.9637 25.1179 54.9637 22.0219C54.9637 20.0192 55.3474 18.2635 56.1148 16.755C56.8817 15.2461 57.9807 14.0818 59.4117 13.2624C60.8423 12.443 62.5335 12.0335 64.4846 12.0335ZM64.3672 16.3641C63.3271 16.3641 62.4553 16.6832 61.7529 17.3206C61.0509 17.9577 60.595 18.888 60.3876 20.11H68.308C68.0478 18.8614 67.5866 17.9254 66.9234 17.3009C66.2597 16.6763 65.4077 16.3641 64.3672 16.3641Z" fill="#004A7B"/>
<path d="M81.653 8.10408H76.6193V31.4641H81.653V8.10408Z" fill="#004A7B"/>
<path d="M94.6839 12.0335C96.5833 12.0335 98.1822 12.4761 99.4825 13.36C100.784 14.2448 101.746 15.4349 102.37 16.9297C102.995 18.4268 103.307 20.0975 103.307 21.9437V23.505H90.5474C90.8073 24.8315 91.374 25.8465 92.2459 26.5485C93.1169 27.2509 94.4499 27.6019 96.2448 27.6019C97.2849 27.6019 98.2213 27.4595 99.054 27.1731C99.8863 26.8866 100.784 26.4703 101.746 25.9244L103.23 29.5917C102.267 30.3465 101.225 30.9258 100.108 31.3281C98.9894 31.7308 97.6625 31.9325 96.1274 31.9325C92.538 31.9325 89.8128 31.055 87.9537 29.2988C86.0934 27.5434 85.1631 25.1179 85.1631 22.0219C85.1631 20.0192 85.5475 18.2635 86.3145 16.755C87.0818 15.2461 88.1804 14.0818 89.6118 13.2624C91.0424 12.443 92.7332 12.0335 94.6839 12.0335ZM94.5665 16.3641C93.5264 16.3641 92.6554 16.6832 91.9526 17.3206C91.2502 17.9577 90.7944 18.888 90.5866 20.11H98.5077C98.2479 18.8614 97.7867 17.9254 97.1227 17.3009C96.4598 16.6763 95.6066 16.3641 94.5665 16.3641Z" fill="#004A7B"/>
<path d="M115.325 12.0331C116.209 12.0331 117.301 12.2151 118.603 12.579C119.903 12.9437 120.996 13.425 121.88 14.0229L120.437 17.6519C119.447 17.2101 118.563 16.8845 117.783 16.6763C117.003 16.4685 116.196 16.3637 115.364 16.3637C113.959 16.3637 112.795 16.8974 111.871 17.9641C110.948 19.0308 110.487 20.3828 110.487 22.0216C110.487 23.6603 110.941 25.0013 111.852 26.0414C112.763 27.0815 113.933 27.6016 115.364 27.6016C116.196 27.6016 117.003 27.4978 117.783 27.2893C118.563 27.0815 119.447 26.7567 120.437 26.3145L121.88 29.9818C121.073 30.606 120.02 31.0873 118.719 31.4258C117.419 31.7631 116.287 31.9325 115.325 31.9325C113.295 31.9325 111.521 31.5287 109.999 30.723C108.477 29.9173 107.307 28.7666 106.487 27.2699C105.668 25.7744 105.258 24.0254 105.258 22.0216C105.258 20.0189 105.668 18.2631 106.487 16.755C107.307 15.2457 108.477 14.0818 109.999 13.262C111.521 12.443 113.295 12.0331 115.325 12.0331Z" fill="#004A7B"/>
<path d="M132.18 16.7158C131.322 16.7158 130.372 16.8389 129.333 17.0858C128.291 17.3335 127.407 17.626 126.679 17.9645L125.313 13.7498C125.989 13.308 127.069 12.911 128.552 12.5596C130.035 12.2086 131.218 12.0335 132.102 12.0335C133.611 12.0335 134.99 12.3332 136.239 12.9308C137.487 13.5295 138.482 14.3614 139.224 15.4281C139.965 16.4951 140.336 17.691 140.336 19.0175V31.4645H136.161V29.4352C134.574 31.1002 132.908 31.9325 131.166 31.9325C128.903 31.9325 127.199 31.3806 126.055 30.2751C124.909 29.1689 124.338 27.6798 124.338 25.807C124.338 23.8826 124.988 22.3927 126.288 21.3393C127.589 20.2855 129.333 19.7586 131.517 19.7586H135.224C135.198 18.7968 134.918 18.0485 134.385 17.5151C133.851 16.9829 133.117 16.7158 132.18 16.7158ZM131.439 23.1532C130.606 23.1532 129.937 23.4138 129.429 23.9339C128.922 24.4547 128.669 25.0792 128.669 25.807C128.669 26.3799 128.897 26.8741 129.351 27.2897C129.806 27.7056 130.386 27.9134 131.088 27.9134C132.596 27.9134 133.988 27.2897 135.263 26.0418V23.1532H131.439Z" fill="#004A7B"/>
<path d="M149.895 8.10408H144.862V31.4641H149.895V8.10408Z" fill="#004A7B"/>
<path d="M160 4.16895H154.966V31.4641H160V4.16895Z" fill="#004A7B"/>
<mask id="mask0_19_531" style="mask-type:luminance" maskUnits="userSpaceOnUse" x="0" y="0" width="28" height="37">
<path d="M27.9133 0.317398H0.999878V36.6783H27.9133V0.317398Z" fill="white"/>
</mask>
<g mask="url(#mask0_19_531)">
<mask id="mask1_19_531" style="mask-type:luminance" maskUnits="userSpaceOnUse" x="0" y="0" width="28" height="37">
<path d="M17.1252 0.317017C9.61583 0.871254 3.3532 5.90688 0.999878 12.7602C2.05859 23.3621 6.94568 28.2489 11.6801 31.5074C16.4141 34.7652 27.9133 36.6779 27.9133 36.6779C26.1161 36.341 19.2928 34.5848 14.8725 29.7995C13.3561 28.1565 12.2746 26.3784 11.5289 24.6043C11.5293 24.6059 11.5296 24.6074 11.5296 24.6074C11.5296 24.6074 11.5293 24.6059 11.5289 24.6043C11.1198 23.6338 10.8124 22.6639 10.5887 21.7188C10.0166 19.6044 9.3784 16.4583 9.28761 12.7218C9.12579 6.10366 12.8668 1.42777 17.1252 0.317017Z" fill="white"/>
</mask>
<g mask="url(#mask1_19_531)">
<path d="M-1.50195 36.5051L1.12792 -1.53488L30.4152 0.490233L27.7853 38.5298L-1.50195 36.5051Z" fill="url(#paint0_linear_19_531)"/>
</g>
</g>
<mask id="mask2_19_531" style="mask-type:luminance" maskUnits="userSpaceOnUse" x="0" y="12" width="29" height="26">
<path d="M28.2141 12.7606H0V37.2815H28.2141V12.7606Z" fill="white"/>
</mask>
<g mask="url(#mask2_19_531)">
<mask id="mask3_19_531" style="mask-type:luminance" maskUnits="userSpaceOnUse" x="0" y="12" width="29" height="26">
<path d="M0.999831 12.7602C0.352144 14.6451 0 16.6684 0 18.7733C0 28.9949 8.28622 37.2812 18.5071 37.2812H27.9132C28.2217 37.2812 28.3976 36.7683 27.9132 36.6779C27.9132 36.6779 16.414 34.7652 11.68 31.5074C6.94564 28.2489 2.05854 23.3621 0.999831 12.7602Z" fill="white"/>
</mask>
<g mask="url(#mask3_19_531)">
<path d="M-5.22559 36.1119L1.35423 6.7088L33.6231 13.9298L27.0433 43.3329L-5.22559 36.1119Z" fill="url(#paint1_linear_19_531)"/>
</g>
</g>
<mask id="mask4_19_531" style="mask-type:luminance" maskUnits="userSpaceOnUse" x="9" y="0" width="28" height="22">
<path d="M36.8509 0.265732H9.28223V21.7192H36.8509V0.265732Z" fill="white"/>
</mask>
<g mask="url(#mask4_19_531)">
<mask id="mask5_19_531" style="mask-type:luminance" maskUnits="userSpaceOnUse" x="9" y="0" width="28" height="22">
<path d="M25.8835 7.95327C34.8155 9.19166 36.7966 16.1107 36.8509 16.3079C35.6456 7.25202 27.8931 0.265732 18.5071 0.265732C18.0425 0.265732 17.5817 0.283206 17.1251 0.317015C12.8667 1.42777 9.12571 6.10365 9.28753 12.7218C9.37832 16.4583 10.0165 19.6044 10.5886 21.7188C9.90977 18.8515 10.0066 16.2125 10.4222 14.4506C11.1508 11.36 12.4884 9.96053 14.012 8.96297C15.021 8.30199 15.8544 8.00113 16.5192 7.89552C16.6005 7.88185 20.6621 7.2296 25.8835 7.95327Z" fill="white"/>
</mask>
<g mask="url(#mask5_19_531)">
<path d="M36.8509 0.265732H9.12573V21.7188H36.8509V0.265732Z" fill="url(#paint2_linear_19_531)"/>
</g>
</g>
<mask id="mask6_19_531" style="mask-type:luminance" maskUnits="userSpaceOnUse" x="16" y="7" width="22" height="25">
<path d="M37.0151 7.6129H16.5193V31.0356H37.0151V7.6129Z" fill="white"/>
</mask>
<g mask="url(#mask6_19_531)">
<path d="M36.851 16.3079C36.7966 16.1107 34.8156 9.19166 25.8836 7.95327C20.6622 7.22961 16.6006 7.88185 16.5193 7.89553C17.17 7.7922 17.6593 7.87616 17.9955 7.99544C18.9816 8.33694 20.0035 9.34513 21.0634 11.1264C21.6427 12.1 22.1923 13.3308 22.4564 14.5019C22.4754 14.5848 22.4924 14.6676 22.508 14.7496C22.5791 15.1208 22.6208 15.4839 22.6208 15.8277C22.6208 16.1867 22.5783 16.5252 22.4826 16.8313C22.2075 17.7096 21.3418 18.3037 20.5627 18.7736C19.1708 19.6128 18.3161 20.6156 18.5691 22.4421C18.5877 22.5781 18.6143 22.7205 18.6477 22.8653C18.9725 24.2807 19.9332 26.0414 20.6318 26.8578C22.0753 28.544 23.0816 29.3934 24.7538 30.3002C27.8825 31.9956 33.0951 30.7237 35.1693 26.8369C36.4437 24.4471 37.0151 21.6649 37.0151 18.7733C37.0151 17.9375 36.9589 17.1147 36.851 16.3079Z" fill="url(#paint3_linear_19_531)"/>
<mask id="mask7_19_531" style="mask-type:luminance" maskUnits="userSpaceOnUse" x="16" y="7" width="22" height="25">
<path d="M36.851 16.3079C36.7966 16.1107 34.8156 9.19166 25.8836 7.95327C20.6622 7.22961 16.6006 7.88185 16.5193 7.89553C17.17 7.7922 17.6593 7.87616 17.9955 7.99544C18.9816 8.33694 20.0035 9.34513 21.0634 11.1264C21.6427 12.1 22.1923 13.3308 22.4564 14.5019C22.4754 14.5848 22.4924 14.6676 22.508 14.7496C22.5791 15.1208 22.6208 15.4839 22.6208 15.8277C22.6208 16.1867 22.5783 16.5252 22.4826 16.8313C22.2075 17.7096 21.3418 18.3037 20.5627 18.7736C19.1708 19.6128 18.3161 20.6156 18.5691 22.4421C18.5877 22.5781 18.6143 22.7205 18.6477 22.8653C18.9725 24.2807 19.9332 26.0414 20.6318 26.8578C22.0753 28.544 23.0816 29.3934 24.7538 30.3002C27.8825 31.9956 33.0951 30.7237 35.1693 26.8369C36.4437 24.4471 37.0151 21.6649 37.0151 18.7733C37.0151 17.9375 36.9589 17.1147 36.851 16.3079Z" fill="white"/>
</mask>
<g mask="url(#mask7_19_531)">
<path d="M36.9232 5.8613L38.6687 31.8846L16.6112 33.3643L14.8657 7.34053L36.9232 5.8613Z" fill="url(#paint4_linear_19_531)"/>
</g>
</g>
</g>
<defs>
<linearGradient id="paint0_linear_19_531" x1="13.941" y1="25.9576" x2="15.155" y2="8.39816" gradientUnits="userSpaceOnUse">
<stop stop-color="#6F0413"/>
<stop offset="1" stop-color="#C70725"/>
</linearGradient>
<linearGradient id="paint1_linear_19_531" x1="11.4819" y1="37.1601" x2="13.339" y2="28.861" gradientUnits="userSpaceOnUse">
<stop stop-color="#850419"/>
<stop offset="1" stop-color="#C70725"/>
</linearGradient>
<linearGradient id="paint2_linear_19_531" x1="9.28311" y1="10.993" x2="36.8517" y2="10.993" gradientUnits="userSpaceOnUse">
<stop stop-color="#720414"/>
<stop offset="1" stop-color="#C50725"/>
</linearGradient>
<linearGradient id="paint3_linear_19_531" x1="16.5193" y1="19.324" x2="37.0151" y2="19.324" gradientUnits="userSpaceOnUse">
<stop stop-color="#6F0413"/>
<stop offset="1" stop-color="#C70725"/>
</linearGradient>
<linearGradient id="paint4_linear_19_531" x1="25.9561" y1="7.54228" x2="27.2329" y2="26.578" gradientUnits="userSpaceOnUse">
<stop stop-color="#6F0413"/>
<stop offset="1" stop-color="#C70725"/>
</linearGradient>
<clipPath id="clip0_19_531">
<rect width="160" height="37.0154" fill="white" transform="translate(0 0.265732)"/>
</clipPath>
</defs>
</svg>
