<svg xmlns="http://www.w3.org/2000/svg" viewBox="0 0 531 75"><defs><style>.cls-1{fill:#1d1d1b;}.cls-2{fill:none;stroke:#cb1d2a;stroke-miterlimit:10;stroke-width:3px;}</style></defs><g id="Camada_2" data-name="Camada 2"><g id="Camada_2-2" data-name="Camada 2"><polygon class="cls-1" points="0 75 16 75 16 22.41 42.88 54 70 22.32 70 75 85 75 85 0 68.42 0 42.62 30.31 16.82 0 0 0 0 75"/><path class="cls-1" d="M159,0H107A12,12,0,0,0,95,12V63a12,12,0,0,0,12,12h52a12,12,0,0,0,12-12V12A12,12,0,0,0,159,0Zm-2,61H109V13h48Z"/><path class="cls-1" d="M519,0H467a12,12,0,0,0-12,12V63a12,12,0,0,0,12,12h52a12,12,0,0,0,12-12V12A12,12,0,0,0,519,0Zm-3,61H468V13h48Z"/><path class="cls-2" d="M180.5,73.5h62.87A12,12,0,0,0,255.5,61.78V13.22A12,12,0,0,0,243.37,1.5H180.5Zm61-13h-48v-46l48,0Z"/><path class="cls-2" d="M340.5,73.5l-.14-60.27a11.91,11.91,0,0,0-12-11.73H278.52a11.91,11.91,0,0,0-12,11.73V73.5h14v-24h46l.14,24Z"/><rect class="cls-2" x="280.52" y="14.5" width="46.98" height="20.99"/><polygon class="cls-1" points="432.79 0 449.27 0 405.57 75 392.68 75 349.87 0 366.37 0 399.55 58.89 399.55 58.89 432.79 0"/></g></g></svg>